<svg xmlns="http://www.w3.org/2000/svg" version="1.1" xmlns:xlink="http://www.w3.org/1999/xlink" xmlns:svgjs="http://svgjs.dev/svgjs" width="2000" height="166" viewBox="0 0 2000 166"><g transform="matrix(1,0,0,1,-1.2121212121212466,-1.0932433469141785)"><svg viewBox="0 0 396 33" data-background-color="#ffffff" preserveAspectRatio="xMidYMid meet" height="166" width="2000" xmlns="http://www.w3.org/2000/svg" xmlns:xlink="http://www.w3.org/1999/xlink"><g id="tight-bounds" transform="matrix(1,0,0,1,0.2400000000000091,0.21733150872390183)"><svg viewBox="0 0 395.52 32.565336982552175" height="32.565336982552175" width="395.52"><g><svg viewBox="0 0 395.52 32.565336982552175" height="32.565336982552175" width="395.52"><g><svg viewBox="0 0 395.52 32.565336982552175" height="32.565336982552175" width="395.52"><g id="textblocktransform"><svg viewBox="0 0 395.52 32.565336982552175" height="32.565336982552175" width="395.52" id="textblock"><g><svg viewBox="0 0 395.52 32.565336982552175" height="32.565336982552175" width="395.52"><g transform="matrix(1,0,0,1,0,0)"><svg width="395.52" viewBox="3.4 -35.5 435.93 36.1" height="32.565336982552175" data-palette-color="#1a191b"><g class="wordmark-text-0" data-fill-palette-color="primary" id="text-0"><path d="M16.75 0.6L16.75 0.6Q12.7 0.6 9.7-0.95 6.7-2.5 5.05-5.4 3.4-8.3 3.4-12.45L3.4-12.45 8.65-12.45Q8.65-8.35 10.8-6.13 12.95-3.9 16.7-3.9L16.7-3.9Q19.9-3.9 21.85-5.38 23.8-6.85 23.8-9.5L23.8-9.5Q23.8-11.3 22.73-12.4 21.65-13.5 19.88-14.2 18.1-14.9 16-15.45 13.9-16 11.78-16.68 9.65-17.35 7.88-18.4 6.1-19.45 5.03-21.2 3.95-22.95 3.95-25.65L3.95-25.65Q3.95-28.5 5.48-30.73 7-32.95 9.73-34.23 12.45-35.5 16.15-35.5L16.15-35.5Q19.75-35.5 22.6-34.18 25.45-32.85 27.18-30.43 28.9-28 28.95-24.6L28.95-24.6 23.65-24.6Q23.6-26.6 22.58-28.03 21.55-29.45 19.88-30.23 18.2-31 16.15-31L16.15-31Q13.2-31 11.35-29.6 9.5-28.2 9.5-25.8L9.5-25.8Q9.5-24.1 10.58-23.1 11.65-22.1 13.43-21.48 15.2-20.85 17.32-20.33 19.45-19.8 21.55-19.13 23.65-18.45 25.43-17.32 27.2-16.2 28.28-14.33 29.35-12.45 29.35-9.55L29.35-9.55Q29.35-6.45 27.7-4.17 26.05-1.9 23.2-0.65 20.35 0.6 16.75 0.6ZM60.75 0L55.95 0 55.75-6.25 55.75-18Q55.75-20.95 53.82-22.63 51.9-24.3 48.55-24.3L48.55-24.3Q45.3-24.3 43.25-22.83 41.2-21.35 41-18.75L41-18.75 36.05-18.75Q36.3-21.7 37.95-23.78 39.6-25.85 42.35-26.98 45.1-28.1 48.7-28.1L48.7-28.1Q52.4-28.1 55.1-26.88 57.8-25.65 59.27-23.35 60.75-21.05 60.75-17.75L60.75-17.75 60.75 0ZM46 0.6L46 0.6Q43.3 0.6 41.25-0.38 39.2-1.35 38.05-3.18 36.9-5 36.9-7.45L36.9-7.45Q36.9-11.7 40.17-14.05 43.45-16.4 49.35-16.4L49.35-16.4 56.4-16.4 56.4-12.65 49.15-12.65Q45.75-12.65 43.82-11.35 41.9-10.05 41.9-7.7L41.9-7.7Q41.9-5.75 43.27-4.65 44.65-3.55 47-3.55L47-3.55Q50-3.55 52.32-5.18 54.65-6.8 56.1-9.65L56.1-9.65 56.65-5.95Q55.35-2.8 52.65-1.1 49.95 0.6 46 0.6ZM95 0L90.34 0 90.34-20.1Q90.34-21.9 89.72-22.9 89.09-23.9 87.8-23.9L87.8-23.9Q86-23.9 84.57-21.6 83.15-19.3 82.59-14.35L82.59-14.35 82.15-18.6Q82.3-23.1 84.27-25.6 86.25-28.1 89.15-28.1L89.15-28.1Q91.84-28.1 93.42-26.13 95-24.15 95-20.5L95-20.5 95 0ZM72.15 0L67.5 0 67.5-27.5 71.95-27.5 72.15-22.15 72.15 0ZM83.55 0L78.95 0 78.95-20.1Q78.95-22 78.27-22.95 77.59-23.9 76.25-23.9L76.25-23.9Q74.34-23.9 73-21.5 71.65-19.1 71.09-14.35L71.09-14.35 71-18.75Q71.09-21.7 72.05-23.8 73-25.9 74.5-27 76-28.1 77.7-28.1L77.7-28.1Q80.5-28.1 82.02-26.08 83.55-24.05 83.55-20.55L83.55-20.55 83.55 0Z" fill="#000000" data-fill-palette-color="primary"></path><path d="M156.9 0L131.65 0 131.65-34.9 156.7-34.9 156.7-30.4 136.95-30.4 136.95-20.35 150.55-20.35 150.55-15.85 136.95-15.85 136.95-4.5 156.9-4.5 156.9 0ZM177.05 0.6L177.05 0.6Q172.8 0.6 169.67-1.18 166.55-2.95 164.84-6.18 163.15-9.4 163.15-13.75L163.15-13.75Q163.15-18.2 164.9-21.43 166.65-24.65 169.8-26.38 172.95-28.1 177.15-28.1L177.15-28.1Q180.5-28.1 183.17-26.88 185.84-25.65 187.52-23.4 189.2-21.15 189.45-18.05L189.45-18.05 184.4-18.05Q184-20.85 182.02-22.38 180.05-23.9 177.15-23.9L177.15-23.9Q174.45-23.9 172.45-22.68 170.45-21.45 169.34-19.2 168.25-16.95 168.25-13.75L168.25-13.75Q168.25-9 170.67-6.3 173.09-3.6 177.05-3.6L177.05-3.6Q178.84-3.6 180.4-4.3 181.95-5 183.05-6.33 184.15-7.65 184.55-9.4L184.55-9.4 189.65-9.4Q189.15-6.3 187.37-4.08 185.59-1.85 182.92-0.63 180.25 0.6 177.05 0.6ZM208.69 0.6L208.69 0.6Q204.44 0.6 201.37-1.15 198.29-2.9 196.64-6.13 194.99-9.35 194.99-13.75L194.99-13.75Q194.99-18.25 196.64-21.43 198.29-24.6 201.37-26.35 204.44-28.1 208.74-28.1L208.74-28.1Q215.14-28.1 218.79-24.28 222.44-20.45 222.44-13.75L222.44-13.75Q222.44-9.35 220.79-6.13 219.14-2.9 216.07-1.15 212.99 0.6 208.69 0.6ZM208.74-3.6L208.74-3.6Q212.74-3.6 215.07-6.33 217.39-9.05 217.39-13.75L217.39-13.75Q217.39-18.5 215.07-21.2 212.74-23.9 208.74-23.9L208.74-23.9Q204.69-23.9 202.39-21.2 200.09-18.5 200.09-13.75L200.09-13.75Q200.09-9.05 202.39-6.33 204.69-3.6 208.74-3.6ZM254.99 0L250.34 0 250.34-20.1Q250.34-21.9 249.72-22.9 249.09-23.9 247.79-23.9L247.79-23.9Q245.99-23.9 244.56-21.6 243.14-19.3 242.59-14.35L242.59-14.35 242.14-18.6Q242.29-23.1 244.27-25.6 246.24-28.1 249.14-28.1L249.14-28.1Q251.84-28.1 253.42-26.13 254.99-24.15 254.99-20.5L254.99-20.5 254.99 0ZM232.14 0L227.49 0 227.49-27.5 231.94-27.5 232.14-22.15 232.14 0ZM243.54 0L238.94 0 238.94-20.1Q238.94-22 238.27-22.95 237.59-23.9 236.24-23.9L236.24-23.9Q234.34-23.9 232.99-21.5 231.64-19.1 231.09-14.35L231.09-14.35 230.99-18.75Q231.09-21.7 232.04-23.8 232.99-25.9 234.49-27 235.99-28.1 237.69-28.1L237.69-28.1Q240.49-28.1 242.02-26.08 243.54-24.05 243.54-20.55L243.54-20.55 243.54 0ZM287.49 0L282.84 0 282.84-20.1Q282.84-21.9 282.21-22.9 281.59-23.9 280.29-23.9L280.29-23.9Q278.49-23.9 277.06-21.6 275.64-19.3 275.09-14.35L275.09-14.35 274.64-18.6Q274.79-23.1 276.76-25.6 278.74-28.1 281.64-28.1L281.64-28.1Q284.34-28.1 285.91-26.13 287.49-24.15 287.49-20.5L287.49-20.5 287.49 0ZM264.64 0L259.99 0 259.99-27.5 264.44-27.5 264.64-22.15 264.64 0ZM276.04 0L271.44 0 271.44-20.1Q271.44-22 270.76-22.95 270.09-23.9 268.74-23.9L268.74-23.9Q266.84-23.9 265.49-21.5 264.14-19.1 263.59-14.35L263.59-14.35 263.49-18.75Q263.59-21.7 264.54-23.8 265.49-25.9 266.99-27 268.49-28.1 270.19-28.1L270.19-28.1Q272.99-28.1 274.51-26.08 276.04-24.05 276.04-20.55L276.04-20.55 276.04 0ZM306.54 0.6L306.54 0.6Q302.29 0.6 299.19-1.13 296.09-2.85 294.44-6.08 292.79-9.3 292.79-13.8L292.79-13.8Q292.79-18.3 294.46-21.5 296.14-24.7 299.26-26.4 302.39-28.1 306.74-28.1L306.74-28.1Q313.39-28.1 316.64-24.43 319.89-20.75 319.49-14.35L319.49-14.35 296.79-14.35 296.84-18.15 314.34-18.1Q314.14-20.75 312.04-22.35 309.94-23.95 306.74-23.95L306.74-23.95Q302.44-23.95 300.14-21.25 297.84-18.55 297.84-13.6L297.84-13.6Q297.84-10.65 298.86-8.38 299.89-6.1 301.84-4.85 303.79-3.6 306.54-3.6L306.54-3.6Q309.79-3.6 311.96-5.15 314.14-6.7 314.64-9.35L314.64-9.35 319.69-9.35Q319.04-4.7 315.54-2.05 312.04 0.6 306.54 0.6ZM351.28-15.7L346.23-15.7 346.23-19Q346.23-21.15 344.93-22.48 343.63-23.8 341.18-23.8L341.18-23.8Q338.08-23.8 335.63-21.48 333.18-19.15 331.73-14.4L331.73-14.4 331.03-19.5Q332.13-22.35 333.71-24.25 335.28-26.15 337.36-27.13 339.43-28.1 341.93-28.1L341.93-28.1Q346.08-28.1 348.68-25.73 351.28-23.35 351.28-19L351.28-19 351.28-15.7ZM332.68 0L327.63 0 327.63-27.5 332.38-27.5 332.68-21.25 332.68 0ZM372.03 0.6L372.03 0.6Q367.78 0.6 364.66-1.18 361.53-2.95 359.83-6.18 358.13-9.4 358.13-13.75L358.13-13.75Q358.13-18.2 359.88-21.43 361.63-24.65 364.78-26.38 367.93-28.1 372.13-28.1L372.13-28.1Q375.48-28.1 378.16-26.88 380.83-25.65 382.5-23.4 384.18-21.15 384.43-18.05L384.43-18.05 379.38-18.05Q378.98-20.85 377-22.38 375.03-23.9 372.13-23.9L372.13-23.9Q369.43-23.9 367.43-22.68 365.43-21.45 364.33-19.2 363.23-16.95 363.23-13.75L363.23-13.75Q363.23-9 365.66-6.3 368.08-3.6 372.03-3.6L372.03-3.6Q373.83-3.6 375.38-4.3 376.93-5 378.03-6.33 379.13-7.65 379.53-9.4L379.53-9.4 384.63-9.4Q384.13-6.3 382.36-4.08 380.58-1.85 377.91-0.63 375.23 0.6 372.03 0.6ZM404.03 0.6L404.03 0.6Q399.78 0.6 396.68-1.13 393.58-2.85 391.93-6.08 390.28-9.3 390.28-13.8L390.28-13.8Q390.28-18.3 391.95-21.5 393.63-24.7 396.75-26.4 399.88-28.1 404.23-28.1L404.23-28.1Q410.88-28.1 414.13-24.43 417.38-20.75 416.98-14.35L416.98-14.35 394.28-14.35 394.33-18.15 411.83-18.1Q411.63-20.75 409.53-22.35 407.43-23.95 404.23-23.95L404.23-23.95Q399.93-23.95 397.63-21.25 395.33-18.55 395.33-13.6L395.33-13.6Q395.33-10.65 396.35-8.38 397.38-6.1 399.33-4.85 401.28-3.6 404.03-3.6L404.03-3.6Q407.28-3.6 409.45-5.15 411.63-6.7 412.13-9.35L412.13-9.35 417.18-9.35Q416.53-4.7 413.03-2.05 409.53 0.6 404.03 0.6ZM439.33 0L433.13 0 433.13-6.2 439.33-6.2 439.33 0Z" fill="#000000" data-fill-palette-color="secondary"></path></g></svg></g></svg></g></svg></g></svg></g></svg></g><defs></defs></svg><rect width="395.52" height="32.565336982552175" fill="none" stroke="none" visibility="hidden"></rect></g></svg></g></svg>